<svg width="532" height="85" viewBox="0 0 532 85" fill="none" xmlns="http://www.w3.org/2000/svg">
<path d="M115.194 50.0077C45.5524 46.8094 44.6058 42.4082 15.7042 36.6099C15.7042 36.2645 15.7042 36.0701 15.7042 35.7247C44.7075 40.2862 45.7558 42.5192 115.46 42.7197C115.359 45.6528 115.295 47.124 115.194 50.0077Z" fill="white"/>
<path d="M101.151 75.1664C31.5103 71.968 30.5637 67.5669 1.66207 61.7685C1.66207 61.4231 1.66207 61.2287 1.66207 60.8833C30.6654 65.4449 31.7137 67.6779 101.418 67.8783C101.317 70.8114 101.253 72.2826 101.151 75.1664Z" fill="white"/>
<path d="M130.363 25.4592C60.7224 22.2609 59.7758 17.8597 30.8742 12.0614C30.8742 11.7159 30.8742 11.5216 30.8742 11.1761C59.8775 15.7377 60.9258 17.9707 130.63 18.1712C130.529 21.1043 130.465 22.5755 130.363 25.4592Z" fill="white"/>
<path d="M16.0137 15.2971C59.3852 38.7557 83.2072 33.7548 102.941 42.0112C102.941 41.9064 102.941 41.8508 102.941 41.7552C83.1691 32.629 59.3214 36.3438 15.8736 11.1766C15.9499 12.8297 15.9501 13.6439 16.0137 15.2971Z" fill="white"/>
<path d="M0.843938 39.8448C44.2155 60.3278 68.0375 58.3025 87.7714 66.559C87.7714 66.4541 87.7714 66.3986 87.7714 66.303C67.9993 57.1767 44.1517 57.9159 0.703857 35.7243C0.780149 37.3774 0.780362 38.1917 0.843938 39.8448Z" fill="white"/>
<path d="M171.528 82.9313V17.7713H181.888L184.928 25.2513V82.9313H171.528ZM200.008 65.4513C194.355 65.4513 189.435 64.1446 185.248 61.5313C181.088 58.9179 179.008 56.0246 179.008 52.8513L184.928 46.9313C184.928 49.5979 185.955 51.8246 188.008 53.6113C190.088 55.3979 192.515 56.2913 195.288 56.2913C198.301 56.2913 200.621 55.3046 202.248 53.3313C203.901 51.3579 204.728 47.3846 204.728 41.4113C204.728 35.5179 203.901 31.5713 202.248 29.5713C200.621 27.5713 198.301 26.5713 195.288 26.5713C192.515 26.5713 190.088 27.4646 188.008 29.2513C185.955 31.0379 184.928 33.2379 184.928 35.8513L179.008 30.0513C179.008 26.8513 181.088 23.9313 185.248 21.2913C189.435 18.6513 194.355 17.3313 200.008 17.3313C206.435 17.3313 211.088 19.4646 213.968 23.7313C216.848 27.9979 218.288 33.8779 218.288 41.3713C218.288 48.8379 216.848 54.7179 213.968 59.0113C211.088 63.3046 206.435 65.4513 200.008 65.4513ZM242.009 65.6513C239.129 65.6513 236.556 65.4246 234.289 64.9713C232.049 64.4913 230.143 63.6913 228.569 62.5713C226.996 61.4513 225.796 59.9446 224.969 58.0513C224.143 56.1579 223.729 53.7979 223.729 50.9713C223.729 48.2779 224.116 46.0246 224.889 44.2113C225.689 42.3979 226.849 40.9446 228.369 39.8513C229.916 38.7313 231.823 37.9313 234.089 37.4513C236.356 36.9446 238.969 36.6913 241.929 36.6913H256.889V34.8913C256.889 32.7579 256.503 31.0779 255.729 29.8513C254.983 28.5979 253.889 27.6913 252.449 27.1313C251.009 26.5713 249.303 26.2913 247.329 26.2913C245.756 26.2913 244.289 26.5446 242.929 27.0513C241.596 27.5313 240.449 28.3446 239.489 29.4913C238.529 30.6379 237.849 32.1846 237.449 34.1313L224.289 30.4913C224.849 28.0379 225.836 25.9713 227.249 24.2913C228.689 22.5846 230.436 21.2246 232.489 20.2113C234.543 19.1979 236.823 18.4646 239.329 18.0113C241.863 17.5313 244.503 17.2913 247.249 17.2913C252.289 17.2913 256.529 17.8913 259.969 19.0913C263.409 20.2913 266.009 22.2379 267.769 24.9313C269.529 27.5979 270.409 31.1446 270.409 35.5713V65.1713H259.209L258.049 59.7313C257.623 60.4513 256.929 61.1579 255.969 61.8513C255.009 62.5446 253.836 63.1846 252.449 63.7713C251.063 64.3313 249.489 64.7846 247.729 65.1313C245.969 65.4779 244.063 65.6513 242.009 65.6513ZM245.049 57.0513C246.889 57.0513 248.596 56.8379 250.169 56.4113C251.743 55.9846 253.089 55.4246 254.209 54.7313C255.356 54.0113 256.183 53.2513 256.689 52.4513V43.9713H245.129C243.956 43.9713 242.889 44.0646 241.929 44.2513C240.969 44.4113 240.143 44.7179 239.449 45.1713C238.783 45.6246 238.263 46.2779 237.889 47.1313C237.543 47.9846 237.369 49.0913 237.369 50.4513C237.369 51.8113 237.556 52.9179 237.929 53.7713C238.303 54.6246 238.836 55.2913 239.529 55.7713C240.223 56.2246 241.036 56.5579 241.969 56.7713C242.903 56.9579 243.929 57.0513 245.049 57.0513ZM300.092 65.6113C291.266 65.6113 285.092 63.5179 281.572 59.3313C278.052 55.1446 276.292 49.2113 276.292 41.5313C276.292 33.7179 278.052 27.7313 281.572 23.5713C285.092 19.4113 291.266 17.3313 300.092 17.3313C307.959 17.3313 313.426 19.0379 316.492 22.4513C319.559 25.8646 321.346 29.4513 321.852 33.2113L309.892 37.3713C309.679 33.7179 308.719 31.0113 307.012 29.2513C305.332 27.4913 303.026 26.6113 300.092 26.6113C297.212 26.6113 294.812 27.6113 292.892 29.6113C290.972 31.5846 290.012 35.5579 290.012 41.5313C290.012 47.2913 290.972 51.2113 292.892 53.2913C294.839 55.3446 297.239 56.3713 300.092 56.3713C302.999 56.3713 305.306 55.4513 307.012 53.6113C308.719 51.7446 309.679 49.1313 309.892 45.7713L321.852 50.0913C321.346 53.5846 319.559 57.0513 316.492 60.4913C313.426 63.9046 307.959 65.6113 300.092 65.6113ZM348.757 43.8113L357.877 34.5313L373.637 65.1713H359.237L348.757 43.8113ZM328.637 65.1713V2.37126H342.037V35.4513L357.557 17.7313H373.197L357.797 35.5313L349.277 43.8113L342.037 50.2913V65.1713H328.637ZM400.54 65.5313C391.847 65.5313 385.647 63.4379 381.94 59.2513C378.26 55.0646 376.42 49.0779 376.42 41.2913C376.42 33.4779 378.26 27.5179 381.94 23.4113C385.647 19.2779 391.847 17.2113 400.54 17.2113C409.233 17.2113 415.42 19.2779 419.1 23.4113C422.78 27.5179 424.62 33.4779 424.62 41.2913C424.62 49.0779 422.78 55.0646 419.1 59.2513C415.42 63.4379 409.233 65.5313 400.54 65.5313ZM400.54 56.4113C403.66 56.4113 406.207 55.4379 408.18 53.4913C410.18 51.5179 411.18 47.4646 411.18 41.3313C411.18 35.1979 410.18 31.1713 408.18 29.2513C406.207 27.3046 403.66 26.3313 400.54 26.3313C397.42 26.3313 394.86 27.3046 392.86 29.2513C390.86 31.1713 389.86 35.1979 389.86 41.3313C389.86 47.4646 390.86 51.5179 392.86 53.4913C394.86 55.4379 397.42 56.4113 400.54 56.4113ZM461.496 41.0913C461.496 35.1179 460.816 31.2113 459.456 29.3713C458.122 27.5313 456.229 26.6113 453.776 26.6113C450.976 26.6113 448.736 27.5979 447.056 29.5713C445.402 31.5179 444.576 33.7446 444.576 36.2513L439.416 33.2113C439.416 28.7313 441.202 24.9713 444.776 21.9313C448.349 18.8646 453.042 17.3313 458.856 17.3313C465.122 17.3313 469.362 19.2646 471.576 23.1313C473.816 26.9713 474.936 32.9579 474.936 41.0913H461.496ZM431.216 65.1713V17.7713H441.576L444.616 25.9713V65.1713H431.216ZM499.275 65.6513C496.395 65.6513 493.822 65.4246 491.555 64.9713C489.315 64.4913 487.408 63.6913 485.835 62.5713C484.262 61.4513 483.062 59.9446 482.235 58.0513C481.408 56.1579 480.995 53.7979 480.995 50.9713C480.995 48.2779 481.382 46.0246 482.155 44.2113C482.955 42.3979 484.115 40.9446 485.635 39.8513C487.182 38.7313 489.088 37.9313 491.355 37.4513C493.622 36.9446 496.235 36.6913 499.195 36.6913H514.155V34.8913C514.155 32.7579 513.768 31.0779 512.995 29.8513C512.248 28.5979 511.155 27.6913 509.715 27.1313C508.275 26.5713 506.568 26.2913 504.595 26.2913C503.022 26.2913 501.555 26.5446 500.195 27.0513C498.862 27.5313 497.715 28.3446 496.755 29.4913C495.795 30.6379 495.115 32.1846 494.715 34.1313L481.555 30.4913C482.115 28.0379 483.102 25.9713 484.515 24.2913C485.955 22.5846 487.702 21.2246 489.755 20.2113C491.808 19.1979 494.088 18.4646 496.595 18.0113C499.128 17.5313 501.768 17.2913 504.515 17.2913C509.555 17.2913 513.795 17.8913 517.235 19.0913C520.675 20.2913 523.275 22.2379 525.035 24.9313C526.795 27.5979 527.675 31.1446 527.675 35.5713V65.1713H516.475L515.315 59.7313C514.888 60.4513 514.195 61.1579 513.235 61.8513C512.275 62.5446 511.102 63.1846 509.715 63.7713C508.328 64.3313 506.755 64.7846 504.995 65.1313C503.235 65.4779 501.328 65.6513 499.275 65.6513ZM502.315 57.0513C504.155 57.0513 505.862 56.8379 507.435 56.4113C509.008 55.9846 510.355 55.4246 511.475 54.7313C512.622 54.0113 513.448 53.2513 513.955 52.4513V43.9713H502.395C501.222 43.9713 500.155 44.0646 499.195 44.2513C498.235 44.4113 497.408 44.7179 496.715 45.1713C496.048 45.6246 495.528 46.2779 495.155 47.1313C494.808 47.9846 494.635 49.0913 494.635 50.4513C494.635 51.8113 494.822 52.9179 495.195 53.7713C495.568 54.6246 496.102 55.2913 496.795 55.7713C497.488 56.2246 498.302 56.5579 499.235 56.7713C500.168 56.9579 501.195 57.0513 502.315 57.0513Z" fill="white"/>
</svg>
