<?xml version="1.0" encoding="UTF-8"?>
<svg id="Layer_1" xmlns="http://www.w3.org/2000/svg" viewBox="0 0 376.46 82.01">
  <defs>
    <style>
      .cls-1 {
        fill: #fff;
      }
    </style>
  </defs>
  <path class="cls-1" d="M313.67,23.27l-19.08,11.27c-1.15.68-3.59.68-4.74,0l-15.58-9.2c-1.4-.83-1.4-1.92,0-2.75L309.3,1.89c1.34-.79-.03-1.89-2.37-1.89h-127.19c-7.56,0-14.65,1.53-18.98,4.09l-8.12,4.8c-1.4.83-1.4,1.92,0,2.75l35.9,21.21c1.4.83,1.4,1.92,0,2.75l-3.35,1.98c-1.08.64-2.86,1.02-4.75,1.02h-14.36l5.08-3c1.4-.83,1.4-1.92,0-2.75L117.28,1.02c-1.08-.64-2.86-1.02-4.74-1.02h-46.12c-1.89,0-3.66.38-4.75,1.02L2.02,36.27c-1.4.83-1.4,1.92,0,2.75l7.53,4.45c1.08.64,2.86,1.02,4.74,1.02h210.84c7.56,0,14.64-1.53,18.98-4.09l8.13-4.81c1.4-.83,1.4-1.92,0-2.75l-35.9-21.21c-1.4-.83-1.4-1.92,0-2.75l3.35-1.98c1.08-.64,2.86-1.02,4.75-1.02h14.36l-5.09,3.01c-1.4.83-1.4,1.92,0,2.75l53.86,31.82c1.08.64,2.86,1.02,4.75,1.02h46.13c1.89,0,3.66-.38,4.74-1.02l32.73-19.34c1.34-.79-.03-1.89-2.37-1.89h-55.14c-1.89,0-3.66.38-4.74,1.02ZM99.34,38.6h-31.98c-2.34,0-3.72-1.09-2.37-1.89l45.3-26.76c1.15-.68,3.59-.68,4.74,0l15.58,9.2c1.4.83,1.4,1.92,0,2.75l-26.52,15.67c-1.08.64-2.86,1.02-4.75,1.02Z"/>
  <g>
    <path class="cls-1" d="M5.64,67.31c-3.76,0-5.64-.82-5.64-2.47,0-.76.44-1.38,1.33-1.86,1-.54,2.41-.81,4.24-.81,1.65,0,3.11.12,4.39.37v3.67h2.05v1.11h-6.39ZM2.57,61.29c-.27-.14-.4-.31-.4-.51s.13-.37.4-.51c.27-.14.6-.21.99-.21s.73.07,1.01.21c.27.14.4.31.4.51s-.13.37-.4.51c-.27.14-.61.21-1.01.21s-.72-.07-.99-.21ZM7.28,63.47c-.53-.13-1.2-.19-2-.19s-1.39.14-1.84.41c-.45.26-.67.61-.67,1.03,0,.99,1.05,1.49,3.16,1.49h1.35v-2.74ZM6.06,61.29c-.27-.14-.4-.31-.4-.51s.13-.37.4-.51c.27-.14.6-.21.99-.21s.72.07.99.21c.27.14.4.31.4.51s-.13.37-.4.51c-.27.14-.6.21-.99.21s-.72-.07-.99-.21Z"/>
    <path class="cls-1" d="M11.72,66.2h6.19v1.11h-6.19v-1.11Z"/>
    <path class="cls-1" d="M17.67,66.2h2.95v-3.9h2.77v3.9h2.86v1.11h-8.58v-1.11ZM20.46,69.42c-.27.14-.61.21-1.01.21s-.72-.07-.99-.21c-.27-.14-.4-.31-.4-.51s.13-.37.4-.51c.27-.14.6-.21.99-.21s.73.07,1.01.21c.27.14.4.31.4.51s-.13.37-.4.51ZM23.93,69.42c-.27.14-.6.21-.99.21s-.72-.07-.99-.21c-.27-.14-.4-.31-.4-.51s.13-.37.4-.51c.27-.14.6-.21.99-.21s.72.07.99.21c.27.14.4.31.4.51s-.13.37-.4.51Z"/>
    <path class="cls-1" d="M25.93,66.2h2.95v-3.9h2.77v3.9h1.87v1.11h-7.59v-1.11ZM27.13,61.29c-.27-.14-.4-.31-.4-.51s.13-.37.4-.51c.27-.14.6-.21.99-.21s.73.07,1.01.21c.27.14.4.31.4.51s-.13.37-.4.51c-.27.14-.61.21-1.01.21s-.72-.07-.99-.21ZM30.62,61.29c-.27-.14-.4-.31-.4-.51s.13-.37.4-.51c.27-.14.6-.21.99-.21s.72.07.99.21c.27.14.4.31.4.51s-.13.37-.4.51c-.27.14-.6.21-.99.21s-.72-.07-.99-.21Z"/>
    <path class="cls-1" d="M46.88,67.31c-1.14,0-1.99-.05-2.55-.15-.6-.11-1.04-.3-1.35-.59-.5.54-1.56.82-3.17.82-1.5,0-2.43-.28-2.79-.83-.43.5-1.37.74-2.8.74h-1.03v-1.11h1.05c.7,0,1.18-.09,1.46-.27.29-.19.44-.54.44-1.05v-1.94h2.77v1.97c0,.51.09.86.26,1.05.2.22.6.33,1.19.33,1.12,0,1.68-.45,1.68-1.36v-2.41h2.67v2.67c0,.42.17.69.51.82.33.13.99.19,1.97.19h.54c.1-.4.15-.83.15-1.28,0-.98-.21-1.93-.62-2.85l2.71-.19c.45.95.68,1.94.68,2.95,0,.4-.03.85-.1,1.37h2.05v1.11h-5.74Z"/>
    <path class="cls-1" d="M52.31,66.2h8.14c.07-.28.1-.55.1-.81,0-.69-.31-1.2-.92-1.53-.66-.34-1.73-.51-3.2-.51-.78,0-1.58.03-2.41.09v-1.1c.99-.07,1.88-.1,2.69-.1,2.32,0,4.01.26,5.07.79,1.02.5,1.53,1.27,1.53,2.31,0,.59-.12,1.25-.36,1.97h-10.64v-1.11ZM56.27,69.43c-.29-.14-.43-.32-.43-.53s.14-.37.43-.52c.28-.14.62-.21,1.02-.21s.75.07,1.03.21c.29.14.43.32.43.52s-.14.38-.43.52c-.28.15-.62.22-1.03.22s-.74-.07-1.02-.21Z"/>
    <path class="cls-1" d="M66.73,69.85l.17-1.15c1.1.12,2.19.18,3.28.18,2.43,0,3.65-.47,3.65-1.41v-.16h-1.64c-3.76,0-5.64-.82-5.64-2.47,0-.76.44-1.38,1.33-1.86,1-.54,2.41-.81,4.24-.81,1.65,0,3.11.12,4.39.37v3.67h2.05v1.11h-2.05v.02c0,.79-.51,1.42-1.53,1.88-1.14.52-2.82.78-5.05.78-1.05,0-2.12-.05-3.2-.14ZM73.83,63.47c-.53-.13-1.2-.19-2-.19s-1.39.14-1.84.41c-.45.26-.67.61-.67,1.03,0,.99,1.05,1.49,3.16,1.49h1.35v-2.74Z"/>
    <path class="cls-1" d="M78.26,66.2h2.61v-6.4h2.77v6.4h2.1v1.11h-7.49v-1.11Z"/>
    <path class="cls-1" d="M85.43,66.2h2.61v-6.4h2.77v7.51h-5.38v-1.11Z"/>
    <path class="cls-1" d="M96.07,59.8h2.77v7.51h-2.77v-7.51Z"/>
    <path class="cls-1" d="M128.08,67.31c-2.75,0-4.75-.28-6.01-.85-1.14-.51-1.71-1.28-1.71-2.3,0-.61.18-1.17.54-1.67l2.97-.24c-.48.53-.72,1.12-.72,1.76,0,.77.38,1.33,1.14,1.66.8.36,2.16.54,4.08.54h2.86v-3.9h2.77v5.01h-5.92ZM125.03,61.29c-.27-.14-.4-.31-.4-.51s.13-.37.4-.51c.27-.14.6-.21.99-.21s.73.07,1.01.21c.27.14.4.31.4.51s-.13.37-.4.51c-.27.14-.61.21-1.01.21s-.72-.07-.99-.21ZM128.52,61.29c-.27-.14-.4-.31-.4-.51s.13-.37.4-.51c.27-.14.6-.21.99-.21s.72.07.99.21c.27.14.4.31.4.51s-.13.37-.4.51c-.27.14-.6.21-.99.21s-.72-.07-.99-.21Z"/>
    <path class="cls-1" d="M139.04,59.8h2.77v6.4h2.11v1.11h-4.88v-7.51Z"/>
    <path class="cls-1" d="M143.59,67.31v-1.11h1.2c.49,0,.88.02,1.17.07-.78-.29-1.17-.8-1.17-1.52s.45-1.32,1.36-1.8c1-.52,2.37-.79,4.11-.79,3.17,0,4.75.82,4.75,2.45v2.69h-11.42ZM152.3,64.79c0-1.01-.75-1.51-2.25-1.51-.77,0-1.39.14-1.85.41-.44.26-.66.61-.66,1.03,0,.99,1.05,1.49,3.15,1.49h1.6v-1.41Z"/>
    <path class="cls-1" d="M159.11,66.2h6.24c-.12-1.58-1.78-2.57-4.96-2.98l.67-1.18c2.22.3,3.9.77,5.02,1.4,1.18.68,1.84,1.59,1.96,2.75h1.38v1.11h-10.31v-1.11Z"/>
    <path class="cls-1" d="M169.1,66.2h6.19v1.11h-6.19v-1.11Z"/>
    <path class="cls-1" d="M175.05,66.2h8.14c.07-.28.1-.55.1-.81,0-.69-.31-1.2-.92-1.53-.66-.34-1.73-.51-3.2-.51-.78,0-1.58.03-2.41.09v-1.1c.99-.07,1.88-.1,2.69-.1,2.32,0,4.01.26,5.07.79,1.02.5,1.53,1.27,1.53,2.31,0,.3-.03.59-.08.86h1.64v1.11h-12.56v-1.11ZM179.02,61.2c-.29-.14-.43-.32-.43-.53s.14-.37.43-.52c.28-.14.62-.21,1.02-.21s.75.07,1.03.21c.29.15.43.32.43.52s-.14.37-.43.52-.62.21-1.03.21-.74-.07-1.02-.21Z"/>
    <path class="cls-1" d="M187.28,66.2h2.61v-6.4h2.77v6.4h2.1v1.11h-7.49v-1.11Z"/>
    <path class="cls-1" d="M194.45,66.2h2.61v-6.4h2.77v7.51h-5.38v-1.11Z"/>
    <path class="cls-1" d="M237.34,69.85c-2.72.08-4.99.12-6.8.12-3.28,0-5.65-.27-7.12-.8-1.42-.52-2.14-1.34-2.14-2.46,0-.64.17-1.27.5-1.88l2.86-.27c-.4.71-.6,1.38-.6,2.01,0,.84.49,1.42,1.48,1.76,1.03.36,2.83.54,5.4.54,1.01,0,2.16-.02,3.47-.06v-1.5h-1.43c-3.74,0-5.62-.82-5.62-2.47,0-.76.44-1.38,1.32-1.86.99-.54,2.4-.81,4.23-.81,1.66,0,3.14.12,4.42.37v7.32ZM229.94,61.29c-.27-.14-.4-.31-.4-.51s.13-.37.4-.51c.27-.14.6-.21.99-.21s.73.07,1.01.21c.27.14.4.31.4.51s-.13.37-.4.51c-.27.14-.61.21-1.01.21s-.72-.07-.99-.21ZM234.62,63.47c-.53-.13-1.18-.19-1.97-.19s-1.39.14-1.86.41c-.45.26-.67.61-.67,1.03,0,.99,1.05,1.49,3.15,1.49h1.35v-2.74ZM233.43,61.29c-.27-.14-.4-.31-.4-.51s.13-.37.4-.51c.27-.14.6-.21.99-.21s.72.07.99.21c.27.14.4.31.4.51s-.13.37-.4.51c-.27.14-.6.21-.99.21s-.72-.07-.99-.21Z"/>
    <path class="cls-1" d="M238.87,69.91l.21-1.12c.58.08,1.15.12,1.7.12.76,0,1.32-.1,1.67-.31.4-.24.61-.63.61-1.18v-5.13h2.77v3.9h2.06v1.11h-2.06v.04c0,1.77-1.73,2.66-5.2,2.66-.62,0-1.2-.03-1.77-.1Z"/>
    <path class="cls-1" d="M247.57,66.2h6.19v1.11h-6.19v-1.11Z"/>
    <path class="cls-1" d="M253.52,66.2h1.05c.7,0,1.18-.09,1.46-.27.29-.19.44-.54.44-1.05v-1.94h2.77v1.97c0,.51.09.86.26,1.05.2.22.6.33,1.19.33,1.12,0,1.68-.45,1.68-1.36v-2.41h2.67v2.67c0,.42.17.69.51.82.33.13.99.19,1.97.19h.54c.1-.4.15-.83.15-1.28,0-.98-.21-1.93-.62-2.85l2.71-.19c.45.95.68,1.94.68,2.95,0,.4-.03.85-.1,1.37h2.05v1.11h-5.74c-1.14,0-1.99-.05-2.55-.15-.6-.11-1.04-.3-1.34-.59-.5.54-1.56.82-3.17.82-1.5,0-2.43-.28-2.79-.83-.43.5-1.37.74-2.8.74h-1.03v-1.11ZM260.88,61.29c-.27-.14-.4-.31-.4-.51s.13-.37.4-.51c.27-.14.6-.21.99-.21s.72.07.99.21c.27.14.4.31.4.51s-.13.37-.4.51c-.27.14-.6.21-.99.21s-.72-.07-.99-.21ZM262.68,59.79c-.25-.13-.37-.29-.37-.47s.12-.34.37-.47c.25-.13.56-.2.91-.2s.68.07.92.2c.25.13.38.29.38.47s-.13.34-.38.47c-.25.13-.55.2-.92.2s-.66-.07-.91-.2ZM264.35,61.29c-.27-.14-.4-.31-.4-.51s.13-.37.4-.51c.27-.14.61-.21,1.01-.21s.72.07.99.21c.27.14.4.31.4.51s-.13.37-.4.51c-.27.14-.6.21-.99.21s-.73-.07-1.01-.21Z"/>
    <path class="cls-1" d="M272.63,66.2h6.19v1.11h-6.19v-1.11Z"/>
    <path class="cls-1" d="M278.59,66.2h2.61v-6.4h2.77v7.51h-5.38v-1.11Z"/>
    <path class="cls-1" d="M289.22,59.8h2.77v7.51h-2.77v-7.51Z"/>
    <path class="cls-1" d="M321.24,67.31c-2.75,0-4.75-.28-6.01-.85-1.14-.51-1.71-1.28-1.71-2.3,0-.61.18-1.17.54-1.67l2.97-.24c-.48.53-.72,1.12-.72,1.76,0,.77.38,1.33,1.14,1.66.8.36,2.16.54,4.08.54h2.86v-3.9h2.77v5.01h-5.92ZM319.75,69.43c-.29-.14-.43-.32-.43-.53s.14-.37.43-.52.62-.21,1.03-.21.74.07,1.02.21c.29.14.43.32.43.52s-.14.38-.43.52c-.28.15-.62.22-1.02.22s-.75-.07-1.03-.21Z"/>
    <path class="cls-1" d="M332.19,59.8h2.77v6.4h2.1v1.11h-4.88v-7.51Z"/>
    <path class="cls-1" d="M336.75,66.2h6.19v1.11h-6.19v-1.11Z"/>
    <path class="cls-1" d="M342.71,66.2h6.24c-.12-1.61-1.84-2.61-5.15-3.01v-1.03l8.34-2.64v1.39l-5.13,1.57c2.91.67,4.46,1.91,4.64,3.72h1.7v1.11h-10.64v-1.11Z"/>
    <path class="cls-1" d="M353.03,66.2h6.19v1.11h-6.19v-1.11Z"/>
    <path class="cls-1" d="M358.98,66.2h1.05c.7,0,1.18-.09,1.46-.27.29-.19.44-.54.44-1.05v-1.94h2.77v1.97c0,.51.09.86.26,1.05.2.22.6.33,1.19.33,1.12,0,1.68-.45,1.68-1.36v-2.41h2.67v2.67c0,.42.17.69.51.82.33.13.99.19,1.97.19h.54c.1-.4.15-.83.15-1.28,0-.98-.21-1.93-.62-2.85l2.71-.19c.45.95.68,1.94.68,2.95,0,.9-.11,1.72-.32,2.48h-3.47c-1.14,0-1.99-.05-2.55-.15-.6-.11-1.04-.3-1.34-.59-.5.54-1.56.82-3.17.82-1.5,0-2.43-.28-2.79-.83-.43.5-1.37.74-2.8.74h-1.03v-1.11Z"/>
    <path class="cls-1" d="M20.7,78.48c0,2.44-3.31,3.53-9.86,3.53s-9.86-1.09-9.86-3.53,3.29-3.52,9.86-3.52,9.86,1.08,9.86,3.52ZM16.54,78.48c0-1.47-1.51-1.75-5.71-1.75s-5.71.28-5.71,1.75,1.51,1.76,5.71,1.76,5.71-.29,5.71-1.76Z"/>
    <path class="cls-1" d="M41.96,81.9h-5.59l-3.01-1.81h-6.41v1.81h-4.18v-3.49h11.74c1.29,0,2.3-.3,2.3-.77,0-.53-.87-.8-2.3-.8h-11.74l2.72-1.78h8.67c3.07,0,6.94.49,6.94,2.44,0,1.06-1.31,1.94-3.53,2.17.46.17.97.42,1.9.9l2.48,1.33Z"/>
    <path class="cls-1" d="M47.68,81.9h-4.18v-6.83h4.18v6.83Z"/>
    <path class="cls-1" d="M65.96,80.14l-2.68,1.76h-12.99v-6.83h15.63l-2.7,1.78h-8.73v.82h10.69l-2.4,1.55h-8.29v.93h11.48Z"/>
    <path class="cls-1" d="M79.39,81.65l-8.27-3.76v4.01h-3.79v-5.67c0-.91,1.09-1.28,2.28-1.28.5,0,1.01.06,1.67.37l8.27,3.76v-4.01h3.81v5.66c0,.91-1.09,1.29-2.3,1.29-.52,0-1.03-.06-1.67-.37Z"/>
    <path class="cls-1" d="M102.58,75.07l-2.7,1.78h-4.82v5.06h-4.18v-5.06h-6.33l2.7-1.78h15.33Z"/>
    <path class="cls-1" d="M105.3,81.9l2.52-1.76h3.39c.81,0,1.75,0,2.4.02-.36-.25-.93-.66-1.37-.99l-2.42-1.81-6.33,4.53h-4.94l8.65-6.18c.56-.4,1.39-.77,2.7-.77s2.08.34,2.66.77l8.43,6.18h-15.69Z"/>
    <path class="cls-1" d="M137.11,80.14l-2.7,1.76h-11.92v-6.83h4.18v5.08h10.45Z"/>
    <path class="cls-1" d="M158.73,77.79c3.29,0,5.06.62,5.06,1.87,0,1.4-1.67,2.24-5.79,2.24h-12.57l2.68-1.76h10.21c.99,0,1.43-.14,1.43-.5s-.44-.49-1.43-.49h-7.34c-3.47,0-5.06-.79-5.06-1.96,0-1.29,1.69-2.12,5.79-2.12h11.72l-2.68,1.78h-9.36c-.97,0-1.43.12-1.43.47s.46.48,1.43.48h7.34Z"/>
    <path class="cls-1" d="M182.67,81.9h-6.31l-4.07-1.8c-1.39-.61-2.04-.91-2.5-1.14.02.32.06.65.06.98v1.96h-4.2v-6.83h4.2v1.58c0,.42-.04.84-.08,1.19.52-.25,1.25-.59,2.48-1.11l3.89-1.66h6.05l-5.16,1.96c-1.8.68-2.62.99-3.49,1.26.77.27,1.82.64,3.55,1.36l5.59,2.26Z"/>
    <path class="cls-1" d="M189.74,81.9l2.52-1.76h3.39c.81,0,1.75,0,2.4.02-.36-.25-.93-.66-1.37-.99l-2.42-1.81-6.33,4.53h-4.94l8.65-6.18c.56-.4,1.39-.77,2.7-.77s2.08.34,2.66.77l8.43,6.18h-15.69Z"/>
    <path class="cls-1" d="M224.27,79.91c0,1.13-1.23,1.99-5.49,1.99h-11.86v-4.16h11.94c.6,0,1.17-.11,1.17-.46s-.58-.44-1.17-.44h-11.94l2.82-1.78h8.94c3.23,0,5.3.63,5.3,1.89,0,.81-.91,1.26-1.84,1.43,1.17.17,2.12.7,2.12,1.52ZM211.12,79.2v.94h7.68c.91,0,1.29-.16,1.29-.48,0-.3-.38-.46-1.29-.46h-7.68Z"/>
    <path class="cls-1" d="M248.71,80.14l-2.7,1.76h-11.92v-6.83h4.18v5.08h10.45Z"/>
    <path class="cls-1" d="M268.88,78.48c0,2.44-3.31,3.53-9.86,3.53s-9.86-1.09-9.86-3.53,3.29-3.52,9.86-3.52,9.86,1.08,9.86,3.52ZM264.73,78.48c0-1.47-1.51-1.75-5.71-1.75s-5.71.28-5.71,1.75,1.51,1.76,5.71,1.76,5.71-.29,5.71-1.76Z"/>
    <path class="cls-1" d="M279.33,77.63h8.63v4.27h-9.26c-4.68,0-8.13-1.5-8.13-3.48s3.45-3.35,8.13-3.35h9.66l-2.7,1.78h-6.96c-2.26,0-3.97.69-3.97,1.66s1.65,1.63,3.97,1.63h5.1v-.99h-6.98l2.5-1.52Z"/>
    <path class="cls-1" d="M294.6,81.9h-4.18v-6.83h4.18v6.83Z"/>
    <path class="cls-1" d="M309.7,77.79c3.29,0,5.06.62,5.06,1.87,0,1.4-1.67,2.24-5.79,2.24h-12.57l2.68-1.76h10.21c.99,0,1.43-.14,1.43-.5s-.44-.49-1.43-.49h-7.34c-3.47,0-5.06-.79-5.06-1.96,0-1.29,1.69-2.12,5.79-2.12h11.72l-2.68,1.78h-9.36c-.97,0-1.43.12-1.43.47s.46.48,1.43.48h7.34Z"/>
    <path class="cls-1" d="M332.17,75.07l-2.7,1.78h-4.82v5.06h-4.18v-5.06h-6.33l2.7-1.78h15.33Z"/>
    <path class="cls-1" d="M337.67,81.9h-4.18v-6.83h4.18v6.83Z"/>
    <path class="cls-1" d="M357.44,80.14l-2.68,1.76h-6.78c-4.68,0-8.13-1.5-8.13-3.48s3.45-3.35,8.13-3.35h9.46l-2.68,1.78h-6.78c-2.26,0-3.95.68-3.95,1.66s1.67,1.63,3.95,1.63h9.46Z"/>
    <path class="cls-1" d="M371.39,77.79c3.29,0,5.06.62,5.06,1.87,0,1.4-1.67,2.24-5.79,2.24h-12.57l2.68-1.76h10.21c.99,0,1.43-.14,1.43-.5s-.44-.49-1.43-.49h-7.34c-3.47,0-5.06-.79-5.06-1.96,0-1.29,1.69-2.12,5.79-2.12h11.72l-2.68,1.78h-9.36c-.97,0-1.43.12-1.43.47s.46.48,1.43.48h7.34Z"/>
  </g>
</svg>