<?xml version="1.0" encoding="UTF-8"?>
<svg id="Layer_1" xmlns="http://www.w3.org/2000/svg" viewBox="0 0 213.05 70.2">
  <defs>
    <style>
      .cls-1 {
        fill: #fff;
      }
    </style>
  </defs>
  <path class="cls-1" d="M177.52,19.92l-10.8,9.65c-.65.58-2.03.58-2.69,0l-8.81-7.88c-.79-.71-.79-1.65,0-2.35L175.04,1.61c.76-.68-.02-1.61-1.34-1.61h-71.98c-4.28,0-8.29,1.31-10.74,3.5l-4.6,4.11c-.79.71-.79,1.65,0,2.35l20.32,18.15c.79.71.79,1.65,0,2.35l-1.89,1.69c-.61.55-1.62.88-2.69.88h-8.13l2.87-2.57c.79-.71.79-1.65,0-2.35L66.37.87c-.61-.55-1.62-.87-2.69-.87h-26.1c-1.07,0-2.07.33-2.69.87L1.14,31.05c-.79.71-.79,1.65,0,2.35l4.26,3.81c.61.55,1.62.87,2.69.87h119.32c4.28,0,8.29-1.31,10.74-3.5l4.6-4.11c.79-.71.79-1.65,0-2.35l-20.31-18.15c-.79-.71-.79-1.65,0-2.35l1.89-1.69c.61-.55,1.62-.88,2.69-.88h8.13l-2.88,2.57c-.79.71-.79,1.65,0,2.35l30.48,27.24c.61.55,1.62.87,2.69.87h26.1c1.07,0,2.07-.33,2.69-.87l18.52-16.55c.76-.68-.02-1.61-1.34-1.61h-31.21c-1.07,0-2.07.33-2.69.87ZM56.22,33.04h-18.1c-1.33,0-2.1-.93-1.34-1.61l25.63-22.91c.65-.58,2.03-.58,2.69,0l8.81,7.88c.79.71.79,1.65,0,2.35l-15.01,13.42c-.61.55-1.62.87-2.69.87Z"/>
  <g>
    <path class="cls-1" d="M3.19,57.61c-2.13,0-3.19-.7-3.19-2.11,0-.65.25-1.18.76-1.59.57-.46,1.37-.69,2.4-.69.93,0,1.76.11,2.49.32v3.14h1.16v.95h-3.61ZM1.45,52.45c-.15-.12-.23-.26-.23-.44s.08-.32.23-.44c.15-.12.34-.18.56-.18s.41.06.57.18c.15.12.23.27.23.44s-.08.31-.23.44c-.15.12-.34.18-.57.18s-.41-.06-.56-.18ZM4.12,54.32c-.3-.11-.68-.16-1.13-.16s-.78.12-1.04.35c-.25.23-.38.52-.38.88,0,.85.6,1.28,1.79,1.28h.76v-2.34ZM3.43,52.45c-.15-.12-.23-.26-.23-.44s.08-.32.23-.44c.15-.12.34-.18.56-.18s.41.06.56.18c.15.12.23.27.23.44s-.08.31-.23.44c-.15.12-.34.18-.56.18s-.41-.06-.56-.18Z"/>
    <path class="cls-1" d="M6.63,56.67h3.5v.95h-3.5v-.95Z"/>
    <path class="cls-1" d="M10,56.67h1.67v-3.34h1.57v3.34h1.62v.95h-4.86v-.95ZM11.58,59.42c-.15.12-.34.18-.57.18s-.41-.06-.56-.18c-.15-.12-.23-.27-.23-.44s.08-.31.23-.44c.15-.12.34-.18.56-.18s.41.06.57.18c.15.12.23.27.23.44s-.08.32-.23.44ZM13.55,59.42c-.15.12-.34.18-.56.18s-.41-.06-.56-.18c-.15-.12-.23-.27-.23-.44s.08-.31.23-.44c.15-.12.34-.18.56-.18s.41.06.56.18c.15.12.23.27.23.44s-.08.31-.23.44Z"/>
    <path class="cls-1" d="M14.67,56.67h1.67v-3.34h1.57v3.34h1.06v.95h-4.29v-.95ZM15.35,52.45c-.15-.12-.23-.26-.23-.44s.08-.32.23-.44c.15-.12.34-.18.56-.18s.41.06.57.18c.15.12.23.27.23.44s-.08.31-.23.44c-.15.12-.34.18-.57.18s-.41-.06-.56-.18ZM17.33,52.45c-.15-.12-.23-.26-.23-.44s.08-.32.23-.44c.15-.12.34-.18.56-.18s.41.06.56.18c.15.12.23.27.23.44s-.08.31-.23.44c-.15.12-.34.18-.56.18s-.41-.06-.56-.18Z"/>
    <path class="cls-1" d="M26.53,57.61c-.65,0-1.13-.04-1.44-.12-.34-.09-.59-.26-.76-.5-.28.47-.88.7-1.8.7-.85,0-1.38-.24-1.58-.71-.24.42-.77.64-1.59.64h-.58v-.95h.59c.4,0,.67-.08.83-.23.17-.16.25-.46.25-.9v-1.66h1.57v1.69c0,.44.05.74.15.89.11.19.34.28.67.28.64,0,.95-.39.95-1.17v-2.06h1.51v2.29c0,.36.1.59.29.7.19.11.56.16,1.12.16h.31c.06-.34.09-.71.09-1.09,0-.84-.12-1.65-.35-2.44l1.53-.16c.26.82.38,1.66.38,2.52,0,.34-.02.73-.06,1.17h1.16v.95h-3.25Z"/>
    <path class="cls-1" d="M29.6,56.67h4.61c.04-.24.06-.47.06-.69,0-.59-.17-1.03-.52-1.31-.37-.29-.98-.44-1.81-.44-.44,0-.9.03-1.37.08v-.94c.56-.06,1.07-.08,1.52-.08,1.31,0,2.27.22,2.87.67.58.43.87,1.09.87,1.98,0,.5-.07,1.07-.2,1.69h-6.02v-.95ZM31.84,59.43c-.16-.12-.24-.27-.24-.45s.08-.32.24-.45c.16-.12.35-.18.58-.18s.42.06.58.18c.16.12.24.27.24.45s-.08.32-.24.45c-.16.12-.35.19-.58.19s-.42-.06-.58-.18Z"/>
    <path class="cls-1" d="M37.77,59.79l.1-.98c.62.1,1.24.16,1.85.16,1.38,0,2.06-.4,2.06-1.21v-.14h-.93c-2.13,0-3.19-.7-3.19-2.11,0-.65.25-1.18.76-1.59.57-.46,1.37-.69,2.4-.69.93,0,1.76.11,2.49.32v3.14h1.16v.95h-1.16v.02c0,.68-.29,1.21-.87,1.61-.64.45-1.6.67-2.86.67-.6,0-1.2-.04-1.81-.12ZM41.78,54.32c-.3-.11-.68-.16-1.13-.16s-.78.12-1.04.35c-.25.23-.38.52-.38.88,0,.85.6,1.28,1.79,1.28h.76v-2.34Z"/>
    <path class="cls-1" d="M44.29,56.67h1.48v-5.48h1.57v5.48h1.19v.95h-4.24v-.95Z"/>
    <path class="cls-1" d="M48.35,56.67h1.48v-5.48h1.57v6.43h-3.04v-.95Z"/>
    <path class="cls-1" d="M54.37,51.19h1.57v6.43h-1.57v-6.43Z"/>
    <path class="cls-1" d="M72.48,57.61c-1.55,0-2.69-.24-3.4-.73-.65-.44-.97-1.09-.97-1.97,0-.52.1-1,.31-1.43l1.68-.21c-.27.45-.41.96-.41,1.5,0,.66.22,1.14.65,1.42.45.31,1.22.46,2.31.46h1.62v-3.34h1.57v4.29h-3.35ZM70.76,52.45c-.15-.12-.23-.26-.23-.44s.08-.32.23-.44c.15-.12.34-.18.56-.18s.41.06.57.18c.15.12.23.27.23.44s-.08.31-.23.44c-.16.12-.34.18-.57.18s-.41-.06-.56-.18ZM72.73,52.45c-.15-.12-.23-.26-.23-.44s.08-.32.23-.44c.15-.12.34-.18.56-.18s.41.06.56.18c.15.12.23.27.23.44s-.08.31-.23.44c-.16.12-.34.18-.56.18s-.41-.06-.56-.18Z"/>
    <path class="cls-1" d="M78.68,51.19h1.57v5.48h1.19v.95h-2.76v-6.43Z"/>
    <path class="cls-1" d="M81.26,57.61v-.95h.68c.27,0,.5.02.66.06-.44-.25-.66-.68-.66-1.3s.26-1.13.77-1.54c.57-.45,1.34-.67,2.32-.67,1.79,0,2.69.7,2.69,2.1v2.31h-6.46ZM86.19,55.45c0-.86-.42-1.3-1.27-1.3-.44,0-.79.12-1.05.35-.25.23-.37.52-.37.88,0,.85.59,1.28,1.78,1.28h.91v-1.21Z"/>
    <path class="cls-1" d="M90.04,56.67h3.53c-.07-1.35-1.01-2.2-2.81-2.55l.38-1.01c1.26.26,2.21.66,2.84,1.2.67.58,1.04,1.36,1.11,2.35h.78v.95h-5.83v-.95Z"/>
    <path class="cls-1" d="M95.7,56.67h3.5v.95h-3.5v-.95Z"/>
    <path class="cls-1" d="M99.07,56.67h4.61c.04-.24.06-.47.06-.69,0-.59-.17-1.03-.52-1.31-.37-.29-.98-.44-1.81-.44-.44,0-.9.03-1.37.08v-.94c.56-.06,1.07-.08,1.52-.08,1.31,0,2.27.22,2.87.67.58.43.87,1.09.87,1.98,0,.26-.02.5-.05.74h.93v.95h-7.11v-.95ZM101.31,52.38c-.16-.12-.24-.27-.24-.45s.08-.32.24-.45c.16-.12.35-.18.58-.18s.42.06.58.18c.16.12.24.27.24.45s-.08.32-.24.45-.35.18-.58.18-.42-.06-.58-.18Z"/>
    <path class="cls-1" d="M105.99,56.67h1.48v-5.48h1.57v5.48h1.19v.95h-4.24v-.95Z"/>
    <path class="cls-1" d="M110.05,56.67h1.48v-5.48h1.57v6.43h-3.04v-.95Z"/>
    <path class="cls-1" d="M134.32,59.79c-1.54.07-2.82.1-3.85.1-1.86,0-3.2-.23-4.03-.69-.81-.44-1.21-1.14-1.21-2.11,0-.55.09-1.08.28-1.61l1.62-.23c-.22.61-.34,1.18-.34,1.72,0,.72.28,1.22.84,1.51.58.31,1.6.46,3.06.46.57,0,1.22-.02,1.96-.05v-1.29h-.81c-2.12,0-3.18-.7-3.18-2.11,0-.65.25-1.18.75-1.59.56-.46,1.36-.69,2.39-.69.94,0,1.77.11,2.5.32v6.26ZM130.13,52.45c-.15-.12-.23-.26-.23-.44s.08-.32.23-.44c.15-.12.34-.18.56-.18s.41.06.57.18c.15.12.23.27.23.44s-.08.31-.23.44c-.16.12-.34.18-.57.18s-.41-.06-.56-.18ZM132.78,54.32c-.3-.11-.67-.16-1.12-.16s-.79.12-1.05.35c-.25.23-.38.52-.38.88,0,.85.59,1.28,1.78,1.28h.76v-2.34ZM132.1,52.45c-.15-.12-.23-.26-.23-.44s.08-.32.23-.44c.15-.12.34-.18.56-.18s.41.06.56.18c.15.12.23.27.23.44s-.08.31-.23.44c-.16.12-.34.18-.56.18s-.41-.06-.56-.18Z"/>
    <path class="cls-1" d="M135.18,59.84l.12-.96c.33.07.65.11.96.11.43,0,.75-.09.95-.27.23-.2.34-.54.34-1.01v-4.39h1.57v3.34h1.17v.95h-1.17v.04c0,1.52-.98,2.28-2.94,2.28-.35,0-.68-.03-1-.09Z"/>
    <path class="cls-1" d="M140.11,56.67h3.5v.95h-3.5v-.95Z"/>
    <path class="cls-1" d="M143.48,56.67h.59c.4,0,.67-.08.83-.23.17-.16.25-.46.25-.9v-1.66h1.57v1.69c0,.44.05.74.15.89.11.19.34.28.67.28.64,0,.95-.39.95-1.17v-2.06h1.51v2.29c0,.36.1.59.29.7.19.11.56.16,1.12.16h.31c.06-.34.09-.71.09-1.09,0-.84-.12-1.65-.35-2.44l1.53-.16c.26.82.38,1.66.38,2.52,0,.34-.02.73-.06,1.17h1.16v.95h-3.25c-.65,0-1.13-.04-1.44-.12-.34-.09-.59-.26-.76-.5-.28.47-.88.7-1.8.7-.85,0-1.38-.24-1.58-.71-.24.42-.77.64-1.59.64h-.58v-.95ZM147.64,52.45c-.15-.12-.23-.26-.23-.44s.08-.32.23-.44c.15-.12.34-.18.56-.18s.41.06.56.18c.15.12.23.27.23.44s-.08.31-.23.44c-.15.12-.34.18-.56.18s-.41-.06-.56-.18ZM148.66,51.17c-.14-.11-.21-.24-.21-.41s.07-.3.21-.41c.14-.11.32-.17.52-.17s.38.06.52.17c.14.11.22.24.22.41s-.07.3-.22.41c-.14.11-.31.17-.52.17s-.37-.06-.52-.17ZM149.61,52.45c-.15-.12-.23-.26-.23-.44s.08-.32.23-.44c.15-.12.34-.18.57-.18s.41.06.56.18c.15.12.23.27.23.44s-.08.31-.23.44c-.15.12-.34.18-.56.18s-.41-.06-.57-.18Z"/>
    <path class="cls-1" d="M154.29,56.67h3.5v.95h-3.5v-.95Z"/>
    <path class="cls-1" d="M157.66,56.67h1.48v-5.48h1.57v6.43h-3.04v-.95Z"/>
    <path class="cls-1" d="M163.68,51.19h1.57v6.43h-1.57v-6.43Z"/>
    <path class="cls-1" d="M181.8,57.61c-1.55,0-2.69-.24-3.4-.73-.65-.44-.97-1.09-.97-1.97,0-.52.1-1,.31-1.43l1.68-.21c-.27.45-.41.96-.41,1.5,0,.66.22,1.14.64,1.42.45.31,1.22.46,2.31.46h1.62v-3.34h1.57v4.29h-3.35ZM180.96,59.43c-.16-.12-.24-.27-.24-.45s.08-.32.24-.45.35-.18.58-.18.42.06.58.18c.16.12.24.27.24.45s-.08.32-.24.45c-.16.12-.35.19-.58.19s-.42-.06-.58-.18Z"/>
    <path class="cls-1" d="M188,51.19h1.57v5.48h1.19v.95h-2.76v-6.43Z"/>
    <path class="cls-1" d="M190.58,56.67h3.5v.95h-3.5v-.95Z"/>
    <path class="cls-1" d="M193.95,56.67h3.53c-.07-1.38-1.04-2.24-2.92-2.57v-.88l4.72-2.26v1.19l-2.91,1.34c1.65.57,2.52,1.63,2.63,3.18h.96v.95h-6.02v-.95Z"/>
    <path class="cls-1" d="M199.79,56.67h3.5v.95h-3.5v-.95Z"/>
    <path class="cls-1" d="M203.16,56.67h.59c.4,0,.67-.08.83-.23.17-.16.25-.46.25-.9v-1.66h1.57v1.69c0,.44.05.74.15.89.11.19.34.28.67.28.64,0,.95-.39.95-1.17v-2.06h1.51v2.29c0,.36.1.59.29.7.19.11.56.16,1.12.16h.31c.06-.34.09-.71.09-1.09,0-.84-.12-1.65-.35-2.44l1.53-.16c.26.82.38,1.66.38,2.52,0,.77-.06,1.48-.18,2.12h-1.96c-.65,0-1.13-.04-1.44-.12-.34-.09-.59-.26-.76-.5-.28.47-.88.7-1.8.7-.85,0-1.38-.24-1.58-.71-.24.42-.77.64-1.59.64h-.58v-.95Z"/>
    <path class="cls-1" d="M11.71,67.17c0,2.09-1.87,3.02-5.58,3.02s-5.58-.94-5.58-3.02,1.86-3.02,5.58-3.02,5.58.93,5.58,3.02ZM9.36,67.17c0-1.26-.86-1.49-3.23-1.49s-3.23.24-3.23,1.49.86,1.5,3.23,1.5,3.23-.24,3.23-1.5Z"/>
    <path class="cls-1" d="M23.74,70.1h-3.16l-1.7-1.55h-3.63v1.55h-2.36v-2.99h6.64c.73,0,1.3-.25,1.3-.66,0-.45-.49-.68-1.3-.68h-6.64l1.54-1.52h4.91c1.74,0,3.93.42,3.93,2.09,0,.91-.74,1.66-2,1.85.26.15.55.36,1.07.77l1.4,1.14Z"/>
    <path class="cls-1" d="M26.98,70.1h-2.36v-5.85h2.36v5.85Z"/>
    <path class="cls-1" d="M37.33,68.6l-1.52,1.5h-7.35v-5.85h8.85l-1.53,1.52h-4.94v.7h6.05l-1.36,1.33h-4.69v.8h6.49Z"/>
    <path class="cls-1" d="M44.93,69.88l-4.68-3.22v3.44h-2.15v-4.85c0-.78.62-1.09,1.29-1.09.29,0,.57.05.95.31l4.68,3.22v-3.44h2.16v4.84c0,.78-.62,1.1-1.3,1.1-.3,0-.58-.05-.95-.31Z"/>
    <path class="cls-1" d="M58.05,64.25l-1.53,1.52h-2.73v4.33h-2.36v-4.33h-3.58l1.53-1.52h8.68Z"/>
    <path class="cls-1" d="M59.59,70.1l1.43-1.5h1.92c.46,0,.99,0,1.36.02-.21-.21-.52-.57-.78-.85l-1.37-1.55-3.58,3.88h-2.8l4.9-5.29c.32-.34.79-.66,1.53-.66s1.18.29,1.51.66l4.77,5.29h-8.88Z"/>
    <path class="cls-1" d="M77.59,68.6l-1.53,1.5h-6.75v-5.85h2.36v4.34h5.91Z"/>
    <path class="cls-1" d="M89.83,66.59c1.86,0,2.87.53,2.87,1.6,0,1.2-.95,1.91-3.28,1.91h-7.11l1.52-1.5h5.78c.56,0,.81-.12.81-.43s-.25-.42-.81-.42h-4.15c-1.96,0-2.87-.67-2.87-1.68,0-1.1.96-1.82,3.28-1.82h6.63l-1.52,1.52h-5.3c-.55,0-.81.1-.81.4s.26.41.81.41h4.15Z"/>
    <path class="cls-1" d="M103.38,70.1h-3.57l-2.31-1.54c-.79-.52-1.15-.78-1.42-.98.01.27.03.56.03.84v1.68h-2.37v-5.85h2.37v1.35c0,.36-.02.72-.05,1.02.3-.21.71-.51,1.4-.95l2.2-1.42h3.42l-2.92,1.68c-1.02.59-1.48.85-1.97,1.08.43.23,1.03.55,2.01,1.16l3.16,1.93Z"/>
    <path class="cls-1" d="M107.38,70.1l1.43-1.5h1.92c.46,0,.99,0,1.36.02-.21-.21-.52-.57-.78-.85l-1.37-1.55-3.58,3.88h-2.8l4.9-5.29c.32-.34.79-.66,1.53-.66s1.18.29,1.51.66l4.77,5.29h-8.88Z"/>
    <path class="cls-1" d="M126.92,68.39c0,.97-.7,1.7-3.1,1.7h-6.71v-3.56h6.76c.34,0,.66-.1.66-.39s-.33-.38-.66-.38h-6.76l1.6-1.52h5.06c1.83,0,3,.54,3,1.62,0,.69-.51,1.08-1.04,1.22.66.15,1.2.6,1.2,1.3ZM119.48,67.79v.8h4.35c.51,0,.73-.14.73-.41,0-.25-.22-.39-.73-.39h-4.35Z"/>
    <path class="cls-1" d="M140.76,68.6l-1.53,1.5h-6.75v-5.85h2.36v4.34h5.91Z"/>
    <path class="cls-1" d="M152.17,67.17c0,2.09-1.87,3.02-5.58,3.02s-5.58-.94-5.58-3.02,1.86-3.02,5.58-3.02,5.58.93,5.58,3.02ZM149.82,67.17c0-1.26-.86-1.49-3.23-1.49s-3.23.24-3.23,1.49.86,1.5,3.23,1.5,3.23-.24,3.23-1.5Z"/>
    <path class="cls-1" d="M158.08,66.45h4.89v3.65h-5.24c-2.65,0-4.6-1.28-4.6-2.98s1.95-2.87,4.6-2.87h5.47l-1.53,1.52h-3.94c-1.28,0-2.25.59-2.25,1.42s.94,1.4,2.25,1.4h2.89v-.85h-3.95l1.42-1.3Z"/>
    <path class="cls-1" d="M166.72,70.1h-2.36v-5.85h2.36v5.85Z"/>
    <path class="cls-1" d="M175.27,66.59c1.86,0,2.87.53,2.87,1.6,0,1.2-.95,1.91-3.28,1.91h-7.11l1.52-1.5h5.78c.56,0,.81-.12.81-.43s-.25-.42-.81-.42h-4.15c-1.96,0-2.87-.67-2.87-1.68,0-1.1.96-1.82,3.28-1.82h6.63l-1.52,1.52h-5.3c-.55,0-.81.1-.81.4s.26.41.81.41h4.15Z"/>
    <path class="cls-1" d="M187.99,64.25l-1.53,1.52h-2.73v4.33h-2.36v-4.33h-3.58l1.53-1.52h8.68Z"/>
    <path class="cls-1" d="M191.1,70.1h-2.36v-5.85h2.36v5.85Z"/>
    <path class="cls-1" d="M202.29,68.6l-1.52,1.5h-3.84c-2.65,0-4.6-1.28-4.6-2.98s1.95-2.87,4.6-2.87h5.35l-1.52,1.52h-3.84c-1.28,0-2.24.59-2.24,1.42s.95,1.4,2.24,1.4h5.35Z"/>
    <path class="cls-1" d="M210.18,66.59c1.86,0,2.87.53,2.87,1.6,0,1.2-.95,1.91-3.28,1.91h-7.11l1.52-1.5h5.78c.56,0,.81-.12.81-.43s-.25-.42-.81-.42h-4.15c-1.96,0-2.87-.67-2.87-1.68,0-1.1.96-1.82,3.28-1.82h6.63l-1.52,1.52h-5.3c-.55,0-.81.1-.81.4s.26.41.81.41h4.16Z"/>
  </g>
</svg>