<?xml version="1.0" encoding="UTF-8"?>
<svg id="Layer_1" xmlns="http://www.w3.org/2000/svg" viewBox="0 0 297 75.53">
  <defs>
    <style>
      .cls-1 {
        fill: #fff;
      }
    </style>
  </defs>
  <path class="cls-1" d="M247.46,21.43l-15.05,10.38c-.91.63-2.83.63-3.74,0l-12.29-8.47c-1.1-.76-1.1-1.77,0-2.53L244.02,1.74c1.06-.73-.02-1.74-1.87-1.74h-100.34c-5.97,0-11.56,1.41-14.98,3.77l-6.41,4.42c-1.1.76-1.1,1.77,0,2.53l28.32,19.53c1.1.76,1.1,1.77,0,2.53l-2.64,1.82c-.86.59-2.25.94-3.74.94h-11.33l4.01-2.76c1.1-.76,1.1-1.77,0-2.53L92.53.94c-.86-.59-2.25-.94-3.74-.94h-36.38c-1.49,0-2.89.35-3.74.94L1.59,33.41c-1.1.76-1.1,1.77,0,2.53l5.94,4.1c.86.59,2.25.94,3.74.94h166.34c5.96,0,11.55-1.41,14.97-3.76l6.42-4.43c1.1-.76,1.1-1.77,0-2.53l-28.32-19.53c-1.1-.76-1.1-1.77,0-2.53l2.64-1.82c.86-.59,2.25-.94,3.74-.94h11.33l-4.01,2.77c-1.1.76-1.1,1.77,0,2.53l42.49,29.31c.86.59,2.25.94,3.74.94h36.39c1.49,0,2.89-.35,3.74-.94l25.82-17.81c1.06-.73-.02-1.74-1.87-1.74h-43.5c-1.49,0-2.89.35-3.74.94ZM78.37,35.55h-25.23c-1.85,0-2.93-1.01-1.87-1.74l35.74-24.65c.91-.63,2.83-.63,3.74,0l12.29,8.47c1.1.76,1.1,1.77,0,2.53l-20.92,14.44c-.86.59-2.25.94-3.74.94Z"/>
  <g>
    <path class="cls-1" d="M4.45,61.99c-2.96,0-4.45-.76-4.45-2.27,0-.7.35-1.27,1.05-1.71.79-.5,1.9-.75,3.35-.75,1.3,0,2.46.11,3.47.34v3.38h1.62v1.02h-5.04ZM2.03,56.44c-.21-.13-.32-.28-.32-.47s.11-.34.32-.47c.22-.13.48-.2.78-.2s.58.07.79.2c.21.13.32.29.32.47s-.11.34-.32.47c-.22.13-.48.2-.79.2s-.57-.07-.78-.2ZM5.74,58.45c-.42-.12-.95-.18-1.58-.18s-1.09.12-1.45.37c-.35.24-.53.56-.53.95,0,.92.83,1.37,2.5,1.37h1.06v-2.52ZM4.78,56.44c-.21-.13-.32-.28-.32-.47s.11-.34.32-.47c.22-.13.48-.2.78-.2s.57.07.78.2c.21.13.32.29.32.47s-.11.34-.32.47c-.21.13-.47.2-.78.2s-.57-.07-.78-.2Z"/>
    <path class="cls-1" d="M9.24,60.97h4.88v1.02h-4.88v-1.02Z"/>
    <path class="cls-1" d="M13.94,60.97h2.32v-3.59h2.19v3.59h2.26v1.02h-6.77v-1.02ZM16.15,63.93c-.22.13-.48.2-.79.2s-.57-.06-.78-.19c-.21-.13-.32-.29-.32-.47s.11-.34.32-.47c.22-.13.48-.2.78-.2s.58.06.79.19c.21.13.32.29.32.47s-.11.34-.32.47ZM18.88,63.93c-.22.13-.48.2-.78.2s-.57-.06-.78-.19c-.21-.13-.32-.29-.32-.47s.11-.34.32-.47c.22-.13.48-.2.78-.2s.57.06.78.19c.21.13.32.29.32.47s-.11.34-.32.47Z"/>
    <path class="cls-1" d="M20.45,60.97h2.32v-3.59h2.19v3.59h1.47v1.02h-5.99v-1.02ZM21.4,56.44c-.21-.13-.32-.28-.32-.47s.11-.34.32-.47c.22-.13.48-.2.78-.2s.58.07.79.2c.21.13.32.29.32.47s-.11.34-.32.47c-.22.13-.48.2-.79.2s-.57-.07-.78-.2ZM24.16,56.44c-.21-.13-.32-.28-.32-.47s.11-.34.32-.47c.22-.13.48-.2.78-.2s.57.07.78.2c.21.13.32.29.32.47s-.11.34-.32.47c-.22.13-.48.2-.78.2s-.57-.07-.78-.2Z"/>
    <path class="cls-1" d="M36.99,61.99c-.9,0-1.57-.04-2.01-.13-.47-.1-.82-.28-1.06-.54-.39.5-1.23.75-2.5.75-1.18,0-1.92-.25-2.2-.76-.34.46-1.08.68-2.21.68h-.81v-1.02h.83c.55,0,.93-.08,1.15-.25.23-.18.35-.5.35-.97v-1.79h2.19v1.81c0,.47.07.79.2.96.16.2.47.3.94.3.89,0,1.33-.42,1.33-1.25v-2.22h2.11v2.46c0,.38.13.64.41.76.26.12.78.18,1.56.18h.43c.08-.37.12-.76.12-1.18,0-.9-.16-1.78-.49-2.63l2.14-.17c.36.88.53,1.78.53,2.72,0,.36-.03.79-.08,1.26h1.62v1.02h-4.53Z"/>
    <path class="cls-1" d="M41.27,60.97h6.42c.05-.26.08-.51.08-.75,0-.64-.24-1.11-.73-1.41-.52-.32-1.36-.47-2.53-.47-.62,0-1.25.03-1.9.08v-1.01c.78-.06,1.49-.09,2.12-.09,1.83,0,3.16.24,4,.72.8.46,1.21,1.17,1.21,2.13,0,.54-.09,1.15-.28,1.81h-8.39v-1.02ZM44.39,63.94c-.23-.13-.34-.29-.34-.48s.11-.34.34-.48c.22-.13.49-.2.8-.2s.59.07.81.2c.23.13.34.29.34.48s-.11.35-.34.48c-.22.13-.49.2-.81.2s-.58-.07-.8-.2Z"/>
    <path class="cls-1" d="M52.65,64.33l.14-1.06c.86.11,1.73.17,2.58.17,1.92,0,2.88-.43,2.88-1.3v-.15h-1.3c-2.96,0-4.45-.76-4.45-2.27,0-.7.35-1.27,1.05-1.71.79-.5,1.9-.75,3.35-.75,1.3,0,2.46.11,3.47.34v3.38h1.62v1.02h-1.62v.02c0,.73-.4,1.31-1.21,1.73-.9.48-2.23.72-3.99.72-.83,0-1.67-.04-2.53-.13ZM58.24,58.45c-.42-.12-.95-.18-1.58-.18s-1.09.12-1.45.37c-.35.24-.53.56-.53.95,0,.92.83,1.37,2.5,1.37h1.06v-2.52Z"/>
    <path class="cls-1" d="M61.74,60.97h2.06v-5.9h2.19v5.9h1.66v1.02h-5.91v-1.02Z"/>
    <path class="cls-1" d="M67.4,60.97h2.06v-5.9h2.19v6.92h-4.24v-1.02Z"/>
    <path class="cls-1" d="M75.79,55.08h2.19v6.92h-2.19v-6.92Z"/>
    <path class="cls-1" d="M101.05,61.99c-2.17,0-3.75-.26-4.74-.78-.9-.47-1.35-1.18-1.35-2.12,0-.56.14-1.08.43-1.54l2.34-.23c-.38.49-.57,1.03-.57,1.62,0,.71.3,1.22.9,1.53.63.33,1.7.5,3.22.5h2.26v-3.59h2.19v4.61h-4.67ZM98.64,56.44c-.21-.13-.32-.28-.32-.47s.11-.34.32-.47c.21-.13.47-.2.78-.2s.58.07.79.2c.21.13.32.29.32.47s-.11.34-.32.47c-.22.13-.48.2-.79.2s-.57-.07-.78-.2ZM101.4,56.44c-.21-.13-.32-.28-.32-.47s.11-.34.32-.47c.21-.13.47-.2.78-.2s.57.07.78.2c.21.13.32.29.32.47s-.11.34-.32.47c-.22.13-.48.2-.78.2s-.57-.07-.78-.2Z"/>
    <path class="cls-1" d="M109.69,55.08h2.19v5.9h1.66v1.02h-3.85v-6.92Z"/>
    <path class="cls-1" d="M113.29,61.99v-1.02h.95c.38,0,.69.02.92.07-.62-.26-.92-.73-.92-1.4s.36-1.22,1.07-1.66c.79-.48,1.87-.72,3.24-.72,2.5,0,3.75.75,3.75,2.26v2.48h-9.01ZM120.16,59.67c0-.93-.59-1.39-1.77-1.39-.61,0-1.1.12-1.46.37-.35.24-.52.56-.52.95,0,.92.83,1.37,2.49,1.37h1.26v-1.3Z"/>
    <path class="cls-1" d="M125.53,60.97h4.93c-.1-1.45-1.4-2.37-3.91-2.74l.53-1.08c1.76.27,3.08.71,3.96,1.29.93.62,1.45,1.47,1.55,2.53h1.09v1.02h-8.13v-1.02Z"/>
    <path class="cls-1" d="M133.41,60.97h4.88v1.02h-4.88v-1.02Z"/>
    <path class="cls-1" d="M138.11,60.97h6.42c.05-.26.08-.51.08-.75,0-.64-.24-1.11-.73-1.41-.52-.32-1.36-.47-2.53-.47-.62,0-1.25.03-1.9.08v-1.01c.78-.06,1.49-.09,2.12-.09,1.83,0,3.16.24,4,.72.8.46,1.21,1.17,1.21,2.13,0,.28-.02.54-.06.79h1.3v1.02h-9.91v-1.02ZM141.23,56.36c-.23-.13-.34-.29-.34-.48s.11-.34.34-.48c.22-.13.49-.2.8-.2s.59.07.81.2c.23.13.34.29.34.48s-.11.34-.34.48-.49.2-.81.2-.58-.06-.8-.19Z"/>
    <path class="cls-1" d="M147.75,60.97h2.06v-5.9h2.19v5.9h1.66v1.02h-5.91v-1.02Z"/>
    <path class="cls-1" d="M153.41,60.97h2.06v-5.9h2.19v6.92h-4.24v-1.02Z"/>
    <path class="cls-1" d="M187.25,64.33c-2.15.07-3.94.11-5.36.11-2.59,0-4.46-.25-5.61-.74-1.12-.48-1.68-1.23-1.68-2.27,0-.59.13-1.17.4-1.73l2.26-.24c-.31.65-.47,1.27-.47,1.85,0,.77.39,1.31,1.17,1.62.81.33,2.23.49,4.26.49.79,0,1.71-.02,2.74-.06v-1.38h-1.13c-2.95,0-4.43-.76-4.43-2.27,0-.7.35-1.27,1.04-1.71.78-.5,1.9-.75,3.34-.75,1.31,0,2.47.11,3.48.34v6.74ZM181.4,56.44c-.21-.13-.32-.28-.32-.47s.11-.34.32-.47c.22-.13.48-.2.78-.2s.58.07.79.2c.21.13.32.29.32.47s-.11.34-.32.47c-.22.13-.48.2-.79.2s-.57-.07-.78-.2ZM185.1,58.45c-.42-.12-.93-.18-1.56-.18s-1.1.12-1.47.37c-.35.24-.53.56-.53.95,0,.92.83,1.37,2.49,1.37h1.06v-2.52ZM184.16,56.44c-.21-.13-.32-.28-.32-.47s.11-.34.32-.47c.22-.13.48-.2.78-.2s.57.07.78.2c.21.13.32.29.32.47s-.11.34-.32.47c-.22.13-.48.2-.78.2s-.57-.07-.78-.2Z"/>
    <path class="cls-1" d="M188.45,64.39l.16-1.03c.46.08.91.11,1.34.11.6,0,1.04-.1,1.32-.29.32-.22.48-.58.48-1.08v-4.72h2.19v3.59h1.63v1.02h-1.63v.04c0,1.63-1.37,2.45-4.1,2.45-.49,0-.95-.03-1.39-.1Z"/>
    <path class="cls-1" d="M195.31,60.97h4.88v1.02h-4.88v-1.02Z"/>
    <path class="cls-1" d="M200.01,60.97h.83c.55,0,.93-.08,1.15-.25.23-.18.35-.5.35-.97v-1.79h2.19v1.81c0,.47.07.79.2.96.16.2.47.3.94.3.89,0,1.33-.42,1.33-1.25v-2.22h2.11v2.46c0,.38.13.64.41.76.26.12.78.18,1.56.18h.43c.08-.37.12-.76.12-1.18,0-.9-.16-1.78-.49-2.63l2.14-.17c.36.88.53,1.78.53,2.72,0,.36-.03.79-.08,1.26h1.62v1.02h-4.53c-.9,0-1.57-.04-2.01-.13-.47-.1-.82-.28-1.06-.54-.39.5-1.23.75-2.5.75-1.18,0-1.92-.25-2.2-.76-.34.46-1.08.68-2.21.68h-.81v-1.02ZM205.82,56.44c-.21-.13-.32-.28-.32-.47s.11-.34.32-.47c.22-.13.48-.2.78-.2s.57.07.78.2c.21.13.32.29.32.47s-.11.34-.32.47c-.21.13-.47.2-.78.2s-.57-.07-.78-.2ZM207.24,55.06c-.19-.12-.29-.26-.29-.44s.1-.32.29-.44c.2-.12.44-.18.72-.18s.53.06.73.18c.2.12.3.26.3.44s-.1.32-.3.44c-.19.12-.44.18-.73.18s-.52-.06-.72-.18ZM208.56,56.44c-.21-.13-.32-.28-.32-.47s.11-.34.32-.47c.22-.13.48-.2.79-.2s.57.07.78.2c.21.13.32.29.32.47s-.11.34-.32.47c-.22.13-.48.2-.78.2s-.58-.07-.79-.2Z"/>
    <path class="cls-1" d="M215.09,60.97h4.88v1.02h-4.88v-1.02Z"/>
    <path class="cls-1" d="M219.79,60.97h2.06v-5.9h2.19v6.92h-4.24v-1.02Z"/>
    <path class="cls-1" d="M228.18,55.08h2.19v6.92h-2.19v-6.92Z"/>
    <path class="cls-1" d="M253.43,61.99c-2.17,0-3.75-.26-4.74-.78-.9-.47-1.35-1.18-1.35-2.12,0-.56.14-1.08.43-1.54l2.34-.23c-.38.49-.57,1.03-.57,1.62,0,.71.3,1.22.9,1.53.63.33,1.7.5,3.22.5h2.26v-3.59h2.19v4.61h-4.67ZM252.26,63.94c-.23-.13-.34-.29-.34-.48s.11-.34.34-.48.49-.2.81-.2.58.07.8.2c.23.13.34.29.34.48s-.11.35-.34.48c-.22.13-.49.2-.8.2s-.59-.07-.81-.2Z"/>
    <path class="cls-1" d="M262.08,55.08h2.19v5.9h1.66v1.02h-3.85v-6.92Z"/>
    <path class="cls-1" d="M265.67,60.97h4.88v1.02h-4.88v-1.02Z"/>
    <path class="cls-1" d="M270.37,60.97h4.93c-.1-1.48-1.45-2.41-4.07-2.77v-.95l6.58-2.43v1.28l-4.05,1.44c2.3.62,3.52,1.76,3.66,3.42h1.34v1.02h-8.39v-1.02Z"/>
    <path class="cls-1" d="M278.51,60.97h4.88v1.02h-4.88v-1.02Z"/>
    <path class="cls-1" d="M283.21,60.97h.83c.55,0,.93-.08,1.15-.25.23-.18.35-.5.35-.97v-1.79h2.19v1.81c0,.47.07.79.2.96.16.2.47.3.94.3.89,0,1.33-.42,1.33-1.25v-2.22h2.11v2.46c0,.38.13.64.41.76.26.12.78.18,1.56.18h.43c.08-.37.12-.76.12-1.18,0-.9-.16-1.78-.49-2.63l2.14-.17c.36.88.53,1.78.53,2.72,0,.83-.08,1.59-.25,2.28h-2.74c-.9,0-1.57-.04-2.01-.13-.47-.1-.82-.28-1.06-.54-.39.5-1.23.75-2.5.75-1.18,0-1.92-.25-2.2-.76-.34.46-1.08.68-2.21.68h-.81v-1.02Z"/>
    <path class="cls-1" d="M16.33,72.27c0,2.25-2.61,3.25-7.78,3.25s-7.78-1.01-7.78-3.25,2.59-3.24,7.78-3.24,7.78,1,7.78,3.24ZM13.05,72.27c0-1.35-1.19-1.61-4.5-1.61s-4.5.25-4.5,1.61,1.19,1.62,4.5,1.62,4.5-.26,4.5-1.62Z"/>
    <path class="cls-1" d="M33.1,75.43h-4.41l-2.37-1.66h-5.06v1.66h-3.29v-3.22h9.26c1.02,0,1.81-.27,1.81-.71,0-.49-.68-.73-1.81-.73h-9.26l2.15-1.64h6.84c2.42,0,5.47.45,5.47,2.25,0,.98-1.03,1.79-2.78,1.99.37.16.76.39,1.5.83l1.96,1.22Z"/>
    <path class="cls-1" d="M37.62,75.43h-3.29v-6.29h3.29v6.29Z"/>
    <path class="cls-1" d="M52.03,73.81l-2.12,1.62h-10.25v-6.29h12.33l-2.13,1.64h-6.89v.75h8.43l-1.89,1.43h-6.54v.86h9.05Z"/>
    <path class="cls-1" d="M62.63,75.19l-6.52-3.46v3.7h-2.99v-5.22c0-.84.86-1.18,1.8-1.18.4,0,.8.06,1.32.34l6.52,3.46v-3.7h3.01v5.21c0,.84-.86,1.19-1.81,1.19-.41,0-.81-.06-1.32-.34Z"/>
    <path class="cls-1" d="M80.93,69.13l-2.13,1.64h-3.8v4.66h-3.29v-4.66h-5l2.13-1.64h12.09Z"/>
    <path class="cls-1" d="M83.08,75.43l1.99-1.62h2.67c.64,0,1.38,0,1.89.02-.29-.23-.73-.61-1.08-.91l-1.91-1.66-5,4.18h-3.9l6.83-5.69c.45-.37,1.1-.71,2.13-.71s1.64.31,2.1.71l6.65,5.69h-12.38Z"/>
    <path class="cls-1" d="M108.17,73.81l-2.13,1.62h-9.4v-6.29h3.29v4.67h8.24Z"/>
    <path class="cls-1" d="M125.22,71.64c2.59,0,3.99.57,3.99,1.72,0,1.29-1.32,2.06-4.57,2.06h-9.91l2.12-1.62h8.05c.78,0,1.13-.13,1.13-.46s-.35-.45-1.13-.45h-5.79c-2.74,0-3.99-.72-3.99-1.81,0-1.19,1.34-1.96,4.57-1.96h9.25l-2.12,1.64h-7.38c-.76,0-1.13.11-1.13.43s.37.44,1.13.44h5.79Z"/>
    <path class="cls-1" d="M144.11,75.43h-4.98l-3.21-1.66c-1.1-.56-1.61-.84-1.97-1.05.02.29.05.6.05.9v1.81h-3.31v-6.29h3.31v1.46c0,.39-.03.77-.06,1.1.41-.23.99-.55,1.96-1.03l3.07-1.53h4.77l-4.07,1.81c-1.42.63-2.07.91-2.75,1.16.6.24,1.43.59,2.8,1.25l4.41,2.08Z"/>
    <path class="cls-1" d="M149.7,75.43l1.99-1.62h2.67c.64,0,1.38,0,1.89.02-.29-.23-.73-.61-1.08-.91l-1.91-1.66-5,4.18h-3.9l6.83-5.69c.45-.37,1.1-.71,2.13-.71s1.64.31,2.1.71l6.65,5.69h-12.38Z"/>
    <path class="cls-1" d="M176.94,73.59c0,1.04-.97,1.83-4.33,1.83h-9.36v-3.83h9.42c.48,0,.92-.1.92-.42s-.46-.4-.92-.4h-9.42l2.23-1.64h7.05c2.55,0,4.19.58,4.19,1.74,0,.74-.72,1.16-1.45,1.32.92.16,1.67.65,1.67,1.4ZM166.56,72.94v.87h6.06c.72,0,1.02-.15,1.02-.44,0-.27-.3-.42-1.02-.42h-6.06Z"/>
    <path class="cls-1" d="M196.22,73.81l-2.13,1.62h-9.4v-6.29h3.29v4.67h8.24Z"/>
    <path class="cls-1" d="M212.13,72.27c0,2.25-2.61,3.25-7.78,3.25s-7.78-1.01-7.78-3.25,2.59-3.24,7.78-3.24,7.78,1,7.78,3.24ZM208.85,72.27c0-1.35-1.19-1.61-4.5-1.61s-4.5.25-4.5,1.61,1.19,1.62,4.5,1.62,4.5-.26,4.5-1.62Z"/>
    <path class="cls-1" d="M220.37,71.49h6.81v3.93h-7.3c-3.69,0-6.41-1.38-6.41-3.21s2.72-3.09,6.41-3.09h7.62l-2.13,1.64h-5.49c-1.78,0-3.13.64-3.13,1.53s1.3,1.5,3.13,1.5h4.03v-.91h-5.51l1.97-1.4Z"/>
    <path class="cls-1" d="M232.42,75.43h-3.29v-6.29h3.29v6.29Z"/>
    <path class="cls-1" d="M244.33,71.64c2.59,0,3.99.57,3.99,1.72,0,1.29-1.32,2.06-4.57,2.06h-9.91l2.12-1.62h8.05c.78,0,1.13-.13,1.13-.46s-.35-.45-1.13-.45h-5.79c-2.74,0-3.99-.72-3.99-1.81,0-1.19,1.34-1.96,4.57-1.96h9.25l-2.12,1.64h-7.38c-.76,0-1.13.11-1.13.43s.37.44,1.13.44h5.79Z"/>
    <path class="cls-1" d="M262.06,69.13l-2.13,1.64h-3.8v4.66h-3.29v-4.66h-5l2.13-1.64h12.09Z"/>
    <path class="cls-1" d="M266.4,75.43h-3.29v-6.29h3.29v6.29Z"/>
    <path class="cls-1" d="M282,73.81l-2.12,1.62h-5.35c-3.69,0-6.41-1.38-6.41-3.21s2.72-3.09,6.41-3.09h7.46l-2.12,1.64h-5.35c-1.78,0-3.12.63-3.12,1.53s1.32,1.5,3.12,1.5h7.46Z"/>
    <path class="cls-1" d="M293.01,71.64c2.59,0,3.99.57,3.99,1.72,0,1.29-1.32,2.06-4.57,2.06h-9.91l2.12-1.62h8.05c.78,0,1.13-.13,1.13-.46s-.35-.45-1.13-.45h-5.79c-2.74,0-3.99-.72-3.99-1.81,0-1.19,1.34-1.96,4.57-1.96h9.25l-2.12,1.64h-7.38c-.76,0-1.13.11-1.13.43s.37.44,1.13.44h5.79Z"/>
  </g>
</svg>